<svg id="Capa_1" data-name="Capa 1" xmlns="http://www.w3.org/2000/svg" viewBox="0 0 385.47 170.18"><defs><style>.cls-1{fill:#002e6d;fill-rule:evenodd;}</style></defs><title>logo_tecnm</title><path class="cls-1" d="M19.12,23A98.29,98.29,0,0,0,6.3,27.39V42.92c0,4.45-.44,3.44,4.23,3.59C35.7,47.34,49.16,50.73,68,62.4a33.36,33.36,0,0,0-4.13-13.27C51.28,39.91,39.39,35.36,23.82,34.3c44.12-10.54,83.72,31.77,69,75.49-3.55-1-10.84-3.79-17.54,1.87,3.26,9.06.65,23.22-11.47,22.4.43,4.17-1.82,9.83-7.95,14.37-8.54,5.24-21.77,7-28.34,3.07-8.16,1.33-14.12-1.08-21.19-4.55v7.47a39.31,39.31,0,0,0,12.77,5l3.22,14.42a4.29,4.29,0,0,0,4.2,2.4H48.32a4.36,4.36,0,0,0,4-2.4L55.4,159a68.06,68.06,0,0,0,8.48-2.84l11.26,9.93a4.13,4.13,0,0,0,4.59-.52L96.26,153.3A4.54,4.54,0,0,0,98,149l-6.17-13.6A72.38,72.38,0,0,0,97,128.18l15,1.42c1.58,0,2.67-1,3.36-3.11l6.2-19.64c.54-1.79.32-3.3-1-4.41L107.49,95a70,70,0,0,0-.08-8.93l13-7.68c1.42-.75,1.61-2.37.83-4.6l-6.49-19.48a3.34,3.34,0,0,0-3.33-2.93l-15,1.7a67.66,67.66,0,0,0-5.31-7.19l6-13.77c.43-1.67,0-3.06-1.88-4.18L78.44,16c-1.6-1.12-3.15-1.45-4.59-.43L62.77,25.71A70.71,70.71,0,0,0,54.25,23L51,8.34C50.44,6.63,49.14,5.89,46.88,6H26.38c-2.42.08-3.5,1.06-4,2.35L19.12,23ZM43.29,86h1.87a.35.35,0,0,1,.35.36v.72a.35.35,0,0,1-.35.35H43.29a.35.35,0,0,1-.35-.35v-.72a.35.35,0,0,1,.35-.36Zm4.89-31.34A5.87,5.87,0,1,1,41,58.84a5.87,5.87,0,0,1,7.19-4.16Zm1.27,2.46a1.76,1.76,0,1,1-2.16,1.25,1.77,1.77,0,0,1,2.16-1.25ZM44.22,82.48A4.26,4.26,0,1,1,40,86.74a4.26,4.26,0,0,1,4.25-4.26Zm0,2.1a2.16,2.16,0,1,1-2.15,2.16,2.16,2.16,0,0,1,2.15-2.16Zm11.2-25.79c4.25,1.8,8.65,3.74,12.69,5.92,0,.91-.13,1.87-.21,2.8a55.75,55.75,0,0,1-1.6,6.7C60,71.48,49.29,71.08,42.58,73A12.25,12.25,0,0,1,36.3,59.87l1.55.46A8.83,8.83,0,0,0,55.5,60a9.74,9.74,0,0,0-.08-1.22ZM50.5,86.57c-.07-3.89-3-6.11-6.68-6.8a43.34,43.34,0,0,0-11-.56c7.82-6.38,23.89-6.55,32.53-3.08A15.94,15.94,0,0,0,50.5,86.57ZM6.74,52.38c-.76-.06-.91-3.71.12-3.68,12.05.3,22.27,1,34,4.73A8.71,8.71,0,0,0,38,58.18c-10.36-3.54-20.51-4.87-31.3-5.8Zm.11,6.41c-.91-.15-.92-4.63-.07-4.52,9.4,1.22,18.27,2.2,27.46,4.9a14.29,14.29,0,0,0-.07,5.6,215.78,215.78,0,0,0-27.32-6Zm0,8.09c-.76-.22-1.25-5.83.19-5.58C16.43,63,25.56,64.4,34.78,67a20,20,0,0,0,4.53,7C34,75.92,14.77,69.24,6.85,66.88Zm.2,13.4c-.76,0-2.33-11.29.52-10.5,8.93,2.5,18.23,5.28,27.21,6.27a23.54,23.54,0,0,0-4.44,3.16q-4.66-.06-9.24.13c-4.69.18-9.37.59-14,.94Zm.15,7.9c-1.61,0-1.55-5.83,0-6a175.3,175.3,0,0,1,33.76-.77,6.29,6.29,0,0,0-1.25,9.65A133.48,133.48,0,0,0,7.2,88.18ZM6.3,99.83l0-8.29a1.11,1.11,0,0,1,.86-1.19c5.9-.75,13.07-.3,19.09.29l.44,0C20.59,93.17,11.58,98.52,7.78,101a1.17,1.17,0,0,1-1.28,0c-.32-.23-.2-.67-.2-1.08Zm46,1.09a20.07,20.07,0,0,1-5.94-8.27,6.29,6.29,0,0,0,3.53-3.15,15.35,15.35,0,0,0,2.42,9.88c.22.32.43.65.68,1,.73.84.21,1.27-.69.59Zm-26.72,45.9c-6.77.43-18.59-.31-21.14-8A208.92,208.92,0,0,1,32.9,91.49c.9.14,1.79.29,2.68.46-7.57,17.87-9.72,35.55-10,54.87ZM7.57,124c-2.24,1.44-4.95-16.29,0-20,5.46-3.78,10.66-7,16.58-10.77L28,90.83c.84.09,1.67.19,2.5.31l-2.41,2.7c-7.16,7.88-15.42,21.89-20.5,30.14ZM73.42,74.62c1.7.59-.34,6.22-1.58,5.89a4.36,4.36,0,0,0-3.56.8,56.13,56.13,0,0,1,3.64,9.34c.25,1.11.56,3.78-.69,4.52-.87.51-2.36.38-4.38.62l-.29,2.1c.14.29.52.41.5.61a2.06,2.06,0,0,1-2,1.42c.19.7.68,1,.5,2.09-.12.67-1.37.77-2.2,1.22s-.44.7-.93.74l-.34,0C50.29,101.86,49.88,87,58.69,81.33l2.69.88c.76.25.68.3-.15.57a7.26,7.26,0,0,1-1.07.25c-.94.19-1,.17-.06.51,1.12.39,2.45.65,3.27.94.42.15.4.29.72-.15a1.64,1.64,0,0,0,.09-1.66,2.8,2.8,0,0,0,1.52-.29c.85-.5.56-.81-.32-.76a5.2,5.2,0,0,1-1.71.06l-3.75-1.06a10.91,10.91,0,0,1,7.49-2.4L68.8,73l4.62,1.61ZM64.29,106.7c3.58,3,9,.81,6,3-9.67,7.33-23.89-5.43-25.8-16.12.42,0,.85,0,1.27,0,2,4.33,2.59,6,6.75,9.18a13.45,13.45,0,0,0,7.51,2.79c2.56.23,2.19-.65,4.24,1.1ZM88.29,69c2.37,6,2.11,14.29-3.26,17.6-1.86,1.15-2.6-.12-1.24-1.53,1-1.09,1-3.38.67-4.58-1.41-5-10.67-8.21-15.06-9.56a27.66,27.66,0,0,0-1.78-18.52C76.42,55,84.8,60.12,88.29,69ZM31.57,148.57c-1.38-15-.53-42.48,6-56.24,1.46.29,2.87.73,4.38,1,0,.24-.15,2-.15,2.16-1.32,20.32,6.69,33.2,18.45,39.11-1.29,13.22-18,16.17-28.68,14ZM73.05,113c2.79,4.71-1.42,17.31-7.21,18.37C50.7,128.13,41.5,107.66,42.9,93.48l.64.07A16.62,16.62,0,0,0,44,95.84C46.85,107,60.75,119.18,73.05,113Z" transform="translate(-4.41 -6.01)"/><path class="cls-1" d="M191,85.6v-16H186.1V65.34h13.57v4.24h-4.91v16ZM325.2,72.23V66.57c-3.28-2.93-7.75-2.5-10.55,1.2a12.78,12.78,0,0,0-2.3,7.7,12.08,12.08,0,0,0,3.1,8.58c2.86,3,6.77,2.89,9.75.26V79.17c-2.15,2.36-5.63,3.84-7.85.75a7.45,7.45,0,0,1-1.25-4.5,7.67,7.67,0,0,1,1.26-4.55c1.85-2.63,4.64-2.12,6.64-.07l1.2,1.43Zm-45.37-9.08,1.3-1.7-.91-1.19L278,63.12l1.81,0Zm-53.45,9.08V66.57c-3.28-2.93-7.76-2.51-10.54,1.2a12.75,12.75,0,0,0-2.32,7.7,12.13,12.13,0,0,0,3.11,8.58c2.85,2.93,6.75,2.9,9.75.26V79.17c-2.14,2.36-5.63,3.84-7.85.75a7.51,7.51,0,0,1-1.25-4.5,7.74,7.74,0,0,1,1.26-4.55c1.85-2.63,4.65-2.11,6.64-.07l1.2,1.43ZM303.3,76V74.35h-6.62v4.12h2.95v3a5.45,5.45,0,0,1-2,.43c-2.92,0-4.74-2.83-4.74-6.53a7.31,7.31,0,0,1,1.38-4.55A4.16,4.16,0,0,1,300,69.61a8.49,8.49,0,0,1,2.16,2.08l.39-5.07a8.35,8.35,0,0,0-2.39-1.48,7.35,7.35,0,0,0-8.63,2.59,12.35,12.35,0,0,0-2.37,7.77c0,6.22,3.45,10.77,8.23,10.77a11.2,11.2,0,0,0,5.94-2.06V76Zm3.12,9.57h3.71V65.34h-3.71V85.6ZM262.06,67V85.6h9.78V81.25h-6.06V65.34h-3.72V67Zm-33.18,0V85.6h3.43v-11l9.07,11h1V65.34h-3.42V76.51l-9.15-11.17-.9,0V67ZM202,67V85.6h9.66V81.34H205.6v-4h3.49V73.18H205.6V69.51h6V65.34H202V67Zm42.27,8.44c0-5.9,3.37-10.79,7.93-10.79s7.93,4.89,7.93,10.79-3.3,10.8-7.93,10.8-7.93-5-7.93-10.8Zm3.82,0c0,3.13,1.52,6.21,4.11,6.21s4.11-3.06,4.11-6.21-1.49-6.24-4.11-6.24-4.11,3.1-4.11,6.24Zm23.56,0a14.67,14.67,0,0,1,.59-4.21c1.19-4,4.07-6.58,7.34-6.58,4.66,0,7.92,4.94,7.92,10.79s-3.35,10.8-7.92,10.8-7.93-5-7.93-10.8Zm3.82,0c0,3.13,1.51,6.21,4.11,6.21s4.1-3.06,4.1-6.21-1.49-6.24-4.1-6.24-4.11,3.1-4.11,6.24Zm58.79-10.79c3.23,0,6.17,2.62,7.34,6.55a14.83,14.83,0,0,1,.59,4.24c0,5.85-3.31,10.8-7.93,10.8s-7.92-5-7.93-10.77,3.3-10.82,7.93-10.82Zm-4.11,10.79c0,3.13,1.51,6.21,4.11,6.21s4.11-3.05,4.11-6.21-1.49-6.24-4.11-6.24S330.15,72.33,330.15,75.47Z" transform="translate(-4.41 -6.01)"/><path class="cls-1" d="M370.65,102.31c-2.09-2-5-2.55-7,.06a8.33,8.33,0,0,0,0,9c2.32,3.05,6,1.6,8.24-.75v5.11a7.36,7.36,0,0,1-10.23-.26c-4-3.88-4.37-11.7-.84-16.18a7.49,7.49,0,0,1,11.07-1.19v5.62l-1.26-1.42Zm-42.49-6.75.78-1L328,93.4l-1.75,2.16Zm24.58,3V117h3.89V96.89h-3.89v1.67Zm-12.9,8L334,117h4.27l3.76-6.83,4,6.83h4.8l-6.44-10.83,5.26-9.3h-4.24l-3.16,5.74-3.37-5.74H335l4.8,9.72Zm-17.41-8V117h10.15v-4.24h-6.37v-4h3.84v-4.12h-3.84V101h6.27V96.89H322.43v1.67Zm-17.69-1.68L301.4,117h3.47l1.44-9.33,4.31,9.33h1l4-9.2L317,117h3.7l-3.31-20.13h-.69l-5.51,12.45-5.85-12.45ZM377.25,107c0,3.11,1.59,6.17,4.31,6.17s4.31-3,4.31-6.17-1.57-6.2-4.31-6.2-4.31,3.08-4.31,6.2Zm-4,0c0-5.77,3.46-10.72,8.32-10.72s8.32,4.92,8.32,10.72-3.52,10.72-8.32,10.72S373.24,112.7,373.24,107Z" transform="translate(-4.41 -6.01)"/><path class="cls-1" d="M265.34,98.28v18.36h4.32a9.21,9.21,0,0,0,5.69-1.5c2.62-1.86,4-4.77,4-8.51a10.2,10.2,0,0,0-2.58-7.34,9.45,9.45,0,0,0-7.12-2.67h-4.31v1.66Zm16.19,0v18.36h10.08v-4.22h-6.32v-4h4.11v-4.1h-4.11v-3.63h6.24V96.62h-10v1.65Zm-38.17,18.36h10.2v-4.3h-6.32V96.62h-3.88v20Zm-17.84,0h3.91l1-2.91h6.59l1,2.91h4.06l-7.86-20h-.74l-8,20Zm6.07-6.36,2.17-6.27,2.1,6.27Zm-21.29-12v18.36h3.57V105.72l9.43,10.86h1v-20h-3.57v11l-9.55-11h-.93v1.66Zm-24.31,0v18.36h3.88v-20H186v1.66ZM181.53,102c-2.09-2-5-2.54-6.94.06a7.32,7.32,0,0,0-1.31,4.5,7.18,7.18,0,0,0,1.3,4.46c2.32,3,6,1.58,8.19-.75v5.08a7.31,7.31,0,0,1-10.17-.26,11.58,11.58,0,0,1-3.24-8.48A12.16,12.16,0,0,1,171.77,99a7.45,7.45,0,0,1,11-1.19v5.59l-1.24-1.4Zm-27.9,14.62h3.9l1.05-2.91h6.59l1,2.91h4.06l-7.85-20h-.74l-8,20Zm6.07-6.36,2.16-6.27,2.11,6.27Zm-21.3,6.36,0-20h.92l9.54,11v-11h3.58v20H151.4L142,105.72v10.92Zm53.71-10c0-5.83,3.51-10.67,8.27-10.67s8.28,4.89,8.28,10.67-3.44,10.66-8.28,10.66-8.27-4.87-8.27-10.66Zm4,0c0,3.09,1.58,6.14,4.28,6.14s4.29-3,4.29-6.14-1.55-6.17-4.29-6.17-4.28,3.06-4.28,6.17Zm73.07,5.71V100.89H270a5.14,5.14,0,0,1,4,1.53,6.86,6.86,0,0,1,0,8.41,5.24,5.24,0,0,1-4,1.51Z" transform="translate(-4.41 -6.01)"/></svg>